<svg width="76" height="76" viewBox="0 0 76 76" fill="none" xmlns="http://www.w3.org/2000/svg">
<g clip-path="url(#clip0_1_22)" filter="url(#filter0_d_1_22)">
<rect x="4" width="98" height="96" rx="17" fill="white"/>
<path d="M71.2935 52.2962C68.871 52.9125 67.3729 52.3228 66.0288 50.304C63.0113 45.7831 59.6804 41.4694 56.4663 37.0759C56.0519 36.5075 55.6216 35.9497 55.0851 35.2431C51.2813 40.375 47.4829 45.2625 43.9182 50.3465C42.6432 52.1634 41.3044 52.955 38.9244 52.3122L53.2257 33.1181L39.9126 15.7834C42.2022 15.3372 43.7854 15.5656 45.1879 17.6162C48.2851 22.1425 51.701 26.4509 55.1063 31.009C58.5329 26.4669 61.9063 22.1531 65.0938 17.6694C66.3741 15.8525 67.7501 15.1619 70.0504 15.8312C68.3079 18.1422 66.6026 20.4159 64.8866 22.6737C62.5704 25.7178 60.2966 28.799 57.8954 31.7794C57.0401 32.8419 57.1782 33.5325 57.9432 34.5365C62.3844 40.375 66.7726 46.2719 71.2935 52.2962ZM4.70661 32.7994C5.08911 30.8815 5.34411 28.9265 5.87536 27.0459C9.06286 15.6612 22.1316 10.9278 31.1097 17.9828C36.3691 22.1212 37.676 27.9544 37.4157 34.5312H7.77192C7.32567 46.3303 15.8204 53.4544 26.6472 49.8206C30.4457 48.5456 32.6822 45.5706 33.8032 41.8519C34.3716 39.9872 35.3119 39.695 37.0651 40.2262C36.1672 44.88 34.1326 48.7687 29.8826 51.2019C23.5076 54.8462 14.4072 53.6669 9.62067 48.604C6.79442 45.629 5.5938 41.9262 5.06255 37.9259C4.98286 37.2884 4.81817 36.6615 4.69067 36.0294C4.7013 34.9527 4.70661 33.876 4.70661 32.7994ZM7.82505 32.0078H34.616C34.4407 23.4759 29.1282 17.4144 21.866 17.3612C13.8972 17.2975 8.17036 23.2156 7.82505 32.0078Z" fill="black"/>
</g>
<defs>
<filter id="filter0_d_1_22" x="0" y="0" width="76" height="76" filterUnits="userSpaceOnUse" color-interpolation-filters="sRGB">
<feFlood flood-opacity="0" result="BackgroundImageFix"/>
<feColorMatrix in="SourceAlpha" type="matrix" values="0 0 0 0 0 0 0 0 0 0 0 0 0 0 0 0 0 0 127 0" result="hardAlpha"/>
<feOffset dy="4"/>
<feGaussianBlur stdDeviation="2"/>
<feComposite in2="hardAlpha" operator="out"/>
<feColorMatrix type="matrix" values="0 0 0 0 0 0 0 0 0 0 0 0 0 0 0 0 0 0 0.25 0"/>
<feBlend mode="normal" in2="BackgroundImageFix" result="effect1_dropShadow_1_22"/>
<feBlend mode="normal" in="SourceGraphic" in2="effect1_dropShadow_1_22" result="shape"/>
</filter>
<clipPath id="clip0_1_22">
<rect width="68" height="68" fill="white" transform="translate(4)"/>
</clipPath>
</defs>
</svg>
