<svg width="72" height="73" viewBox="0 0 72 73" fill="none" xmlns="http://www.w3.org/2000/svg">
<g filter="url(#filter0_d_1_53)">
<path fill-rule="evenodd" clip-rule="evenodd" d="M48.3564 51.6342C48.4462 51.4666 48.5323 51.3186 48.6056 51.1655C48.6518 51.0675 48.723 51.0479 48.8234 51.0505C49.4253 51.067 50.0272 51.0851 50.6297 51.0907C51.1413 51.0959 51.6539 51.0866 52.166 51.0809C52.743 51.0742 53.3199 51.0448 53.8963 51.0608C54.664 51.0825 55.412 51.2284 56.1063 51.5599C56.9356 51.9565 57.563 52.5603 57.9907 53.3559C58.2637 53.8638 58.422 54.4026 58.4853 54.9749C58.5766 55.8041 58.5166 56.6141 58.2457 57.4071C57.9099 58.3899 57.2724 59.1422 56.3868 59.7058C55.7052 60.1394 54.9578 60.3957 54.1566 60.5421C53.3088 60.6973 52.4582 60.6473 51.6077 60.6499C50.6748 60.6535 49.7425 60.6339 48.8096 60.6236C48.6465 60.6221 48.6231 60.5921 48.6662 60.4411L48.706 60.3018C48.7968 60.0244 48.8457 60.0121 49.1358 59.9657C49.3366 59.9342 49.5449 59.861 49.7133 59.7527C49.811 59.6898 49.8514 59.5258 49.8896 59.3995C49.9226 59.2892 49.9242 59.168 49.9252 59.0515C49.9385 57.2854 49.9523 55.5199 49.9598 53.755C49.9614 53.3089 49.9507 52.8619 49.9252 52.4164C49.9072 52.1044 49.7356 51.891 49.3531 51.8172C49.0556 51.76 48.7559 51.7157 48.4568 51.6646L48.3564 51.6342ZM56.8968 55.9103C56.8564 55.5586 56.8368 55.2039 56.772 54.8574C56.6168 54.0257 56.2418 53.3012 55.583 52.7335C54.5179 51.8162 53.2354 51.6749 51.8914 51.7842C51.5854 51.809 51.5195 51.9106 51.5147 52.2158C51.5073 52.6489 51.4999 53.0821 51.4993 53.5152C51.4972 54.8888 51.4972 56.2624 51.4993 57.6361C51.4999 58.0269 51.5041 58.4178 51.5158 58.8076C51.5285 59.2067 51.6778 59.5444 52.0805 59.6991C52.7153 59.943 53.3831 59.9718 54.0493 59.8723C55.1134 59.714 55.8577 59.1123 56.3571 58.2105C56.7523 57.4948 56.8639 56.7136 56.8968 55.9103ZM59.4835 60.5875C59.4707 60.3735 59.561 60.1967 59.6726 60.0342C59.7029 59.9904 59.807 59.9925 59.8787 59.9786L60.4875 59.8615C60.7027 59.8172 60.8158 59.6769 60.8461 59.4722C60.8663 59.3371 60.8854 59.2005 60.887 59.0638C60.9003 57.9826 60.9131 56.9013 60.9184 55.82C60.9237 54.7372 60.9194 53.6544 60.9194 52.5716L60.9147 52.3648C60.8929 52.0168 60.7197 51.8363 60.3638 51.7853L59.5918 51.6713C59.4968 51.6589 59.4622 51.6146 59.4968 51.5326C59.5563 51.3929 59.6131 51.248 59.697 51.1222C59.7284 51.0758 59.8341 51.0577 59.9053 51.0593C60.274 51.0644 60.6427 51.0912 61.0113 51.0907L64.2206 51.0722C64.839 51.0716 65.4361 51.1763 65.9908 51.4635C66.6012 51.7791 66.9428 52.2674 67.0405 52.9325C67.1425 53.6312 66.9242 54.2201 66.3982 54.6877C66.182 54.8806 65.902 55.0064 65.6513 55.1631L65.5695 55.2126C65.8022 55.2956 66.0237 55.3673 66.2394 55.4529C66.8705 55.704 67.3725 56.0964 67.6382 56.7229C67.848 57.2174 67.848 57.733 67.7237 58.2455C67.5303 59.0478 66.9858 59.5815 66.2776 59.9853C65.613 60.3642 64.8937 60.5849 64.1277 60.6221C63.4211 60.6566 62.7113 60.6437 62.0032 60.6514L61.5931 60.6535C60.9109 60.6385 60.2283 60.6215 59.5456 60.604L59.4835 60.5875ZM62.425 57.4479H62.4319C62.4319 57.7871 62.4271 58.1264 62.4335 58.4657C62.4378 58.6854 62.4298 58.9112 62.4787 59.1226C62.552 59.4387 62.7007 59.7238 63.0662 59.8146C63.5598 59.9378 64.0639 59.9626 64.5633 59.8785C65.1886 59.7728 65.6874 59.4686 65.961 58.8906C66.1639 58.4611 66.1942 58.0058 66.1246 57.5407C66.0322 56.9281 65.697 56.4836 65.1397 56.1923C64.7742 56.001 64.3843 55.884 63.9688 55.8685C63.5034 55.8515 63.0375 55.8505 62.5722 55.8365C62.4415 55.8329 62.4234 55.8974 62.4239 56.0015C62.4266 56.4831 62.425 56.9652 62.425 57.4479ZM63.4158 55.1404C63.6703 55.1281 63.9582 55.1245 64.2445 55.0966C64.7928 55.0435 65.179 54.7759 65.3803 54.267C65.4829 54.0086 65.4786 53.7426 65.4813 53.4739C65.4893 52.7742 65.0685 52.2009 64.3837 51.9637C63.8551 51.7806 63.3101 51.7775 62.7618 51.792C62.5398 51.7976 62.4404 51.892 62.4372 52.1091L62.4043 54.9394C62.4027 55.0518 62.4526 55.1002 62.5653 55.1038L63.4158 55.1404Z" fill="#D65A31"/>
<path fill-rule="evenodd" clip-rule="evenodd" d="M7.60092 60.0435L7.56213 60.5303C7.20088 60.5303 6.86779 60.5277 6.5347 60.5313C5.90729 60.5375 5.27988 60.5473 4.65195 60.556L4.59138 60.5596C4.5016 60.5493 4.33851 60.5493 4.33426 60.5236C4.3077 60.3787 4.3162 60.2266 4.3231 60.0765C4.32363 60.0595 4.38473 60.0378 4.42032 60.0296L4.90854 59.9239C5.21295 59.8471 5.32026 59.7197 5.3346 59.4144C5.35107 59.0705 5.36754 58.7261 5.36913 58.3822C5.37392 57.5355 5.3686 56.6899 5.37232 55.8432C5.37285 55.6452 5.3022 55.4978 5.11201 55.4173C4.8857 55.3204 4.65832 55.2255 4.42935 55.1358C4.32098 55.0935 4.1802 55.0703 4.19295 54.929C4.2057 54.7852 4.34223 54.7475 4.47079 54.7192C5.0031 54.6011 5.53595 54.4861 6.06667 54.3603C6.23773 54.3196 6.40135 54.251 6.60588 54.1819C6.61651 54.2891 6.63617 54.3912 6.63404 54.4933L6.6027 54.9785C6.60217 55.0332 6.63138 55.1064 6.67335 55.1368C6.69885 55.1559 6.78438 55.1214 6.82688 55.0894C7.28057 54.7542 7.76082 54.465 8.30854 54.2964C9.15695 54.0349 9.88529 54.2773 10.3953 54.9873C10.5749 55.2374 10.5754 55.2374 10.8245 55.0626C11.2522 54.7609 11.6995 54.4949 12.1999 54.3196C13.2986 53.9344 14.3542 54.4232 14.7361 55.4972C14.8753 55.8871 14.9284 56.2898 14.9274 56.7012L14.9173 59.433C14.9168 59.6583 14.9938 59.7867 15.2148 59.8569C15.4629 59.9357 15.72 59.9899 15.9994 60.061L15.9346 60.5308C15.6169 60.5308 15.3248 60.5287 15.0326 60.5313C14.3186 60.5375 13.6046 60.5411 12.8911 60.5571C12.7668 60.5602 12.7344 60.5303 12.728 60.4173C12.7073 60.0559 12.7041 60.0564 13.0547 59.9749L13.1727 59.9455C13.5153 59.8548 13.6295 59.7527 13.6322 59.4155C13.6402 58.4471 13.6609 57.4762 13.6104 56.5099C13.5578 55.5076 12.7381 54.9739 11.7372 55.2307C11.4105 55.3142 11.1146 55.4606 10.8394 55.6504C10.7464 55.7148 10.7289 55.7891 10.7364 55.902C10.7645 56.3289 10.782 56.7564 10.7858 57.1839C10.7921 57.932 10.7826 58.6802 10.7858 59.4289C10.7868 59.7321 10.8936 59.8481 11.2023 59.9182L11.6607 60.0208L11.7457 60.0394C11.7521 60.1817 11.7579 60.324 11.751 60.4663C11.7468 60.5555 11.6756 60.5633 11.5959 60.5617C11.1502 60.5509 10.7039 60.5364 10.2582 60.5375C9.71582 60.5385 9.17395 60.5535 8.63207 60.5627H8.50457C8.50457 60.4117 8.49713 60.2673 8.50988 60.1234C8.51254 60.0889 8.57523 60.0404 8.61826 60.0296L9.1527 59.9198C9.37954 59.8656 9.48792 59.7527 9.50067 59.5289C9.56123 58.4925 9.60479 57.4556 9.50438 56.4197C9.48473 56.2186 9.41726 56.0144 9.3312 55.8293C9.0576 55.2425 8.44188 54.9976 7.7316 55.1739C7.39426 55.2575 7.08985 55.4075 6.80192 55.5968C6.66592 55.6865 6.6011 55.8051 6.6011 55.9551C6.6011 56.9889 6.60482 58.0228 6.60801 59.0561L6.61385 59.4547C6.62023 59.7326 6.74188 59.879 7.0261 59.9388C7.20885 59.9791 7.39373 60.0064 7.60092 60.0435Z" fill="white"/>
<path fill-rule="evenodd" clip-rule="evenodd" d="M39.7194 54.2876C39.8017 54.6764 39.8001 55.026 39.5058 55.291C39.2136 55.5545 38.8439 55.4658 38.4832 55.407C38.5166 55.5916 38.5538 55.7484 38.5719 55.9072C38.7031 57.0874 38.1798 57.9635 37.052 58.4642C36.6259 58.6529 36.1738 58.723 35.7122 58.7591C35.4827 58.7766 35.2818 58.9468 35.2601 59.1298C35.2378 59.3155 35.3578 59.5062 35.5979 59.5619C35.8811 59.6274 36.1765 59.646 36.4671 59.6785C37.0908 59.7476 37.7213 59.779 38.3376 59.8873C39.2694 60.0502 39.7895 60.8396 39.6253 61.7482C39.4793 62.5567 38.9969 63.145 38.3243 63.5962C37.1912 64.3583 35.948 64.581 34.6242 64.1922C33.8671 63.9695 33.3332 63.4864 33.1489 62.7047C33.0564 62.3133 33.1547 61.9591 33.4581 61.6935C33.8188 61.379 34.2114 61.0985 34.5891 60.8015L34.7113 60.6824L34.571 60.587C34.1859 60.4096 33.8778 60.1668 33.7582 59.745C33.7173 59.6022 33.7598 59.5083 33.8847 59.4351C34.0972 59.3108 34.3086 59.1845 34.5184 59.0561C34.6173 58.9963 34.715 58.9344 34.8069 58.8653C34.9323 58.7725 34.9211 58.7034 34.7713 58.6498C34.4228 58.525 34.1131 58.344 33.873 58.0656C33.4719 57.601 33.3582 57.0477 33.3911 56.4635C33.4427 55.5509 33.9532 54.9497 34.783 54.5629C35.7695 54.1035 36.7593 54.0746 37.7649 54.4933C38.1368 54.648 38.5288 54.681 38.9278 54.6542C39.2258 54.6336 39.4862 54.5243 39.7194 54.2876ZM36.084 60.8262C35.3435 60.8201 35.1113 60.9087 34.6768 61.3383C34.1901 61.8199 34.1928 62.4876 34.6783 62.9712C35.047 63.3379 35.5071 63.5096 36.0187 63.5611C36.6163 63.6209 37.205 63.5967 37.7479 63.3064C38.327 62.9955 38.6149 62.418 38.4848 61.8364C38.3769 61.3563 38.0125 61.1366 37.5689 61.0103C37.0642 60.867 36.5425 60.8397 36.084 60.8262ZM34.6295 56.2331C34.6566 56.4326 34.6677 56.6347 34.7134 56.8302C34.8319 57.3365 35.0587 57.7815 35.5778 58.0068C36.1871 58.2724 36.9654 58.1584 37.2321 57.3282C37.4148 56.7595 37.3925 56.1949 37.172 55.6401C37.0738 55.3926 36.9154 55.1832 36.6886 55.0296C36.1595 54.6712 35.2048 54.6238 34.8159 55.4158C34.6895 55.6731 34.6401 55.9469 34.6295 56.2331Z" fill="white"/>
<path fill-rule="evenodd" clip-rule="evenodd" d="M27.1547 54.1602C27.1743 54.2484 27.2137 54.3484 27.2147 54.449C27.2163 54.6403 27.1951 54.8316 27.1839 55.0229V55.1889L27.3507 55.0652C27.8076 54.7001 28.2985 54.3892 28.8701 54.2216C29.9018 53.92 30.9324 54.4681 31.2687 55.488C31.3962 55.8757 31.4467 56.2743 31.4514 56.6796C31.4621 57.5799 31.4684 58.4801 31.478 59.3804C31.4812 59.7037 31.5194 59.7615 31.8345 59.8548C32.013 59.9079 32.1973 59.945 32.3817 59.9729C32.4831 59.9883 32.5267 60.027 32.5214 60.1234L32.5224 60.2121C32.5187 60.5849 32.4922 60.6019 32.1198 60.6009C31.2283 60.5994 30.3374 60.6045 29.446 60.6117C29.1803 60.6138 29.1798 60.6215 29.1533 60.3668L29.1479 60.2204C29.1644 60.0007 29.1697 60.0028 29.3923 59.9708C29.5421 59.9492 29.6909 59.9156 29.837 59.8785C29.9873 59.8409 30.0596 59.7331 30.0798 59.5887C30.0898 59.5155 30.1031 59.4423 30.1026 59.3691C30.0898 58.3853 30.1063 57.4004 30.0511 56.4182C30.0064 55.6236 29.3817 55.1502 28.5598 55.2044C28.1566 55.2317 27.7922 55.3622 27.4596 55.5875C27.2402 55.7365 27.1961 55.9515 27.1972 56.183C27.2014 57.1029 27.2105 58.0228 27.2206 58.9432C27.2227 59.1448 27.2285 59.3464 27.2482 59.5465C27.2689 59.7651 27.3481 59.8532 27.5691 59.9007C27.7805 59.9461 27.9962 59.9724 28.222 60.009L28.2411 60.1781C28.2485 60.5725 28.206 60.6019 27.8113 60.6004C26.8896 60.5968 25.9679 60.6025 25.0467 60.6123C24.9017 60.6143 24.84 60.57 24.8438 60.4328L24.8416 60.374C24.8177 60.0188 24.8283 60.0054 25.1747 59.9476L25.3383 59.9156C25.7134 59.8337 25.8096 59.7367 25.8149 59.367C25.8324 58.196 25.8388 57.0256 25.851 55.8546C25.8526 55.6865 25.7873 55.556 25.6258 55.4864C25.3994 55.3895 25.171 55.2972 24.942 55.2059C24.8156 55.1554 24.6711 55.1234 24.6663 54.9538C24.6631 54.8342 24.7949 54.7285 24.975 54.6929C25.3368 54.6217 25.7017 54.5624 26.0593 54.4753C26.4152 54.3892 26.7648 54.2737 27.1547 54.1602Z" fill="white"/>
<path fill-rule="evenodd" clip-rule="evenodd" d="M47.0846 57.2189C47.0676 58.3125 46.7749 59.1968 45.978 59.8604C44.9686 60.7025 43.394 60.9886 42.1068 60.3591C41.5575 60.0904 41.1537 59.6784 40.8907 59.1437C40.4875 58.3213 40.3866 57.4566 40.597 56.5708C40.8052 55.6947 41.3519 55.06 42.17 54.649C43.0115 54.2267 43.8976 54.0617 44.8321 54.2834C46.0141 54.5634 46.8636 55.4988 47.0325 56.6899C47.0628 56.8987 47.0745 57.1101 47.0846 57.2189ZM45.7156 57.8114L45.6699 57.8062C45.6699 57.7031 45.6757 57.5999 45.6688 57.4968C45.63 56.8544 45.4813 56.2423 45.0977 55.7045C44.7338 55.1951 44.2382 54.8945 43.5932 54.8506C42.8712 54.8011 42.2646 55.193 42.0515 55.9087C41.7317 56.9833 41.8401 58.0305 42.4022 59.0148C42.6471 59.4438 43.0099 59.7604 43.496 59.927C44.4485 60.2523 45.2932 59.8311 45.5413 58.8844C45.6327 58.5348 45.6592 58.1692 45.7156 57.8114Z" fill="white"/>
<path fill-rule="evenodd" clip-rule="evenodd" d="M23.685 57.3035C23.6653 58.0883 23.4746 58.8137 22.9752 59.4444C22.4403 60.1198 21.705 60.4808 20.8688 60.6329C19.8802 60.8123 18.9515 60.6494 18.1573 60.0054C17.7801 59.6991 17.5225 59.3067 17.3525 58.8601C17.0736 58.128 17.004 57.3777 17.1756 56.6131C17.3588 55.7948 17.8348 55.1693 18.5728 54.7496C19.4259 54.2654 20.3466 54.0494 21.3299 54.267C22.5943 54.5475 23.3243 55.3472 23.5941 56.5579C23.6483 56.8023 23.6558 57.0549 23.685 57.3035ZM22.3005 57.8212L22.2639 57.816V57.6685C22.2432 56.9487 22.0981 56.2629 21.6556 55.6648C21.3278 55.2209 20.889 54.9424 20.3264 54.8646C19.4095 54.7377 18.8102 55.2657 18.6115 55.983C18.3523 56.9199 18.4336 57.8454 18.8347 58.7338C19.0849 59.2876 19.4801 59.7192 20.0873 59.9285C21.034 60.2549 21.8915 59.8228 22.1311 58.8797C22.2193 58.5348 22.2458 58.1749 22.3005 57.8212Z" fill="white"/>
<path fill-rule="evenodd" clip-rule="evenodd" d="M45.7548 17.2961C46.4067 19.1251 46.8753 20.9921 47.0298 22.9268C47.2211 25.3275 47.134 27.7118 46.6123 30.0728L46.5453 30.2615C46.3817 30.262 46.2149 30.2419 46.055 30.2662C44.704 30.4724 43.3547 30.6859 42.0048 30.8983C40.6092 31.118 39.2125 31.3289 37.8196 31.563C37.326 31.6455 36.7151 31.547 36.5159 32.209L36.4203 32.2405L36.4877 28.2815L36.4192 18.7291L37.0694 18.6208C38.1325 18.4522 39.1955 18.2805 40.2601 18.116C41.5298 17.9206 42.8006 17.7298 44.0713 17.539C44.6323 17.4555 45.1938 17.3776 45.7548 17.2961Z" fill="#439934"/>
<path fill-rule="evenodd" clip-rule="evenodd" d="M35.0782 43.7822C34.3924 43.2099 33.6826 42.6628 33.0254 42.0606C29.4884 38.8224 26.9007 35.0104 25.6262 30.4147C25.275 29.1503 25.0413 27.8649 24.9659 26.5583C24.9127 25.6436 24.8368 24.7211 24.9037 23.811C25.0806 21.3912 25.4413 18.9946 26.1723 16.6635L26.2127 16.6093C26.2839 16.7011 26.3859 16.7826 26.422 16.8862C27.136 18.926 27.8442 20.9679 28.5491 23.0113C30.7639 29.4314 32.976 35.853 35.1945 42.272C35.2381 42.3973 35.3502 42.4999 35.4309 42.6128L35.0782 43.7822Z" fill="#45A538"/>
<path fill-rule="evenodd" clip-rule="evenodd" d="M45.7548 17.2961C45.1933 17.3771 44.6317 17.4555 44.0713 17.539C42.8005 17.7298 41.5298 17.9206 40.2601 18.116C39.196 18.28 38.133 18.4517 37.0694 18.6208L36.4191 18.7291L36.4138 18.3176C36.3921 17.9793 36.3559 17.6411 36.3511 17.3028L36.2784 10.8297C36.2614 9.47927 36.2359 8.12885 36.2077 6.77894C36.1902 5.94002 36.1716 5.10058 36.1328 4.26269C36.1116 3.81255 36.0366 3.36447 36.0069 2.91433C35.9894 2.65549 36.0127 2.39458 36.0186 2.1347C36.3501 2.7581 36.6747 3.38613 37.0152 4.00488C37.5534 4.98302 38.4113 5.70386 39.1843 6.49019C42.2369 9.59992 44.4038 13.2134 45.7548 17.2961Z" fill="#46A037"/>
<path fill-rule="evenodd" clip-rule="evenodd" d="M36.4209 32.2405L36.5165 32.209C36.7157 31.5469 37.3266 31.6454 37.8202 31.5629C39.2131 31.3288 40.6098 31.1179 42.0054 30.8983C43.3553 30.6864 44.7046 30.4729 46.0556 30.2661C46.2155 30.2419 46.3823 30.262 46.5459 30.2615C46.2936 31.136 46.0949 32.0296 45.7746 32.8798C45.4107 33.8441 44.9708 34.7856 44.5038 35.7086C43.8058 37.0879 42.9361 38.3749 41.9257 39.5541C41.1469 40.4626 40.2788 41.3036 39.4091 42.1332C38.9278 42.5916 38.3615 42.9655 37.8334 43.378L37.6964 43.2872L37.2039 42.8788L36.6944 41.794C36.3433 40.5245 36.1595 39.2323 36.1287 37.9185L36.1382 37.6978L36.2078 36.7419C36.2307 36.4155 36.2615 36.0896 36.2758 35.7632C36.3268 34.5896 36.3725 33.4151 36.4209 32.2405Z" fill="#409433"/>
<path fill-rule="evenodd" clip-rule="evenodd" d="M36.4209 32.2405C36.373 33.4151 36.3274 34.5902 36.2758 35.7648C36.2615 36.0917 36.2312 36.4175 36.2078 36.7434L35.8976 36.8574C35.208 34.8872 34.5179 32.9376 33.8432 30.9834C32.7271 27.7499 31.6247 24.5118 30.5102 21.2772C29.6108 18.6672 28.7034 16.0586 27.7912 13.4521C27.7482 13.3304 27.626 13.2345 27.541 13.1268L29.5279 9.58081C29.5964 9.69579 29.6862 9.80356 29.7292 9.92731C30.6483 12.5673 31.5658 15.2078 32.4753 17.8509C33.6589 21.2901 34.8345 24.7309 36.0171 28.1706C36.0644 28.3078 36.142 28.4346 36.2163 28.5888L36.4883 28.2815C36.4655 29.6015 36.4432 30.9205 36.4209 32.2405Z" fill="#4FAA41"/>
<path fill-rule="evenodd" clip-rule="evenodd" d="M27.5403 13.1268C27.6258 13.2345 27.748 13.3304 27.7905 13.4521C28.7027 16.0586 29.61 18.6666 30.5094 21.2773C31.624 24.5118 32.7263 27.7499 33.8425 30.9834C34.5172 32.9376 35.2073 34.8867 35.8968 36.8574L36.2071 36.7434L36.1375 37.6994L36.0743 37.9196C35.9664 38.9658 35.8756 40.014 35.7438 41.0582C35.678 41.5815 35.5372 42.0951 35.4304 42.6128C35.3502 42.4999 35.2376 42.3973 35.194 42.272C32.975 35.8529 30.7634 29.4313 28.5486 23.0113C27.8436 20.9679 27.1349 18.926 26.4215 16.8862C26.3853 16.7826 26.2833 16.7011 26.2122 16.6093L27.5403 13.1268Z" fill="#4AA73C"/>
<path fill-rule="evenodd" clip-rule="evenodd" d="M36.4878 28.2815L36.2158 28.5888C36.1414 28.4347 36.0638 28.3078 36.0166 28.1707C34.834 24.7309 33.6583 21.2902 32.4747 17.851C31.5652 15.2079 30.6477 12.5673 29.7287 9.92735C29.6857 9.8036 29.5959 9.69583 29.5273 9.58085L31.9844 6.44379C32.0619 6.54382 32.1724 6.63302 32.2123 6.74594C32.8944 8.68469 33.5702 10.625 34.2427 12.5668C34.8707 14.3808 35.489 16.1968 36.1244 18.0077C36.1669 18.1289 36.3151 18.2145 36.4139 18.3176L36.4192 18.7291L36.4878 28.2815Z" fill="#57AE47"/>
<path fill-rule="evenodd" clip-rule="evenodd" d="M36.4139 18.3176C36.3146 18.215 36.1669 18.1294 36.1244 18.0077C35.4896 16.1968 34.8707 14.3808 34.2427 12.5668C33.5702 10.625 32.8944 8.68466 32.2123 6.74591C32.1724 6.63299 32.0619 6.54379 31.9844 6.44376C32.7834 5.68424 33.5574 4.8974 34.3888 4.17294C35.1278 3.52944 35.7217 2.83954 35.7493 1.82221L35.8078 1.61957L36.0182 2.13416C36.0128 2.39404 35.9889 2.65494 36.0065 2.91379C36.0367 3.36393 36.1117 3.81201 36.1324 4.26215C36.1712 5.10004 36.1897 5.93947 36.2073 6.7784C36.2354 8.1283 36.2609 9.47872 36.2779 10.8291L36.3507 17.3023C36.356 17.6411 36.3927 17.9793 36.4139 18.3176Z" fill="#60B24F"/>
<path fill-rule="evenodd" clip-rule="evenodd" d="M35.4309 42.6123C35.5377 42.0946 35.6785 41.581 35.7444 41.0577C35.8761 40.014 35.9669 38.9652 36.0748 37.919L36.1019 37.9149L36.1284 37.9196C36.1593 39.2334 36.3431 40.5255 36.6942 41.795C36.6225 41.8868 36.5221 41.9677 36.4839 42.0709C36.189 42.8783 35.9106 43.6925 35.6142 44.4995C35.5738 44.6098 35.4601 44.6959 35.381 44.7923L35.0776 43.7817L35.4309 42.6123Z" fill="#A9AA88"/>
<path fill-rule="evenodd" clip-rule="evenodd" d="M35.3811 44.7929C35.4603 44.6959 35.5739 44.6103 35.6143 44.5C35.9108 43.693 36.1891 42.8789 36.484 42.0714C36.5217 41.9683 36.6226 41.8873 36.6944 41.7955L37.2038 42.8804C37.1034 43.0186 36.9642 43.1439 36.9084 43.2981L35.9331 46.0783C35.8927 46.1902 35.7562 46.2686 35.6637 46.3629L35.3811 44.7929Z" fill="#B6B598"/>
<path fill-rule="evenodd" clip-rule="evenodd" d="M35.6638 46.3624C35.7557 46.2681 35.8928 46.1897 35.9332 46.0778L36.9085 43.2975C36.9638 43.1434 37.1035 43.0181 37.2039 42.8799L37.6969 43.2877C37.4589 43.5162 37.3266 43.7802 37.4063 44.1138L37.2565 44.5897C37.1885 44.6712 37.0897 44.7423 37.0562 44.8356C36.7157 45.7823 36.3911 46.7342 36.0479 47.6803C36.0043 47.8 35.8838 47.8943 35.7993 48.0006L35.6638 46.3624Z" fill="#C2C1A7"/>
<path fill-rule="evenodd" clip-rule="evenodd" d="M35.7987 48C35.8837 47.8938 36.0043 47.7995 36.0473 47.6798C36.3905 46.7337 36.7156 45.7818 37.0556 44.8351C37.0891 44.7418 37.1879 44.6712 37.2559 44.5892L37.0492 46.7734C36.994 46.8352 36.9143 46.8894 36.8877 46.961L36.2003 48.873C36.1519 49.0034 36.0595 49.12 35.9873 49.2422C35.923 49.1607 35.8082 49.0818 35.8029 48.9973C35.7827 48.6662 35.7971 48.3326 35.7987 48Z" fill="#CECDB7"/>
<path fill-rule="evenodd" clip-rule="evenodd" d="M35.9878 49.2427C36.06 49.1205 36.1525 49.0039 36.2008 48.8735L36.8883 46.9616C36.9148 46.8894 36.995 46.8357 37.0498 46.7739L37.0551 48.2073L36.5605 49.4381L35.9878 49.2427Z" fill="#DBDAC7"/>
<path fill-rule="evenodd" clip-rule="evenodd" d="M36.5605 49.4381L37.0551 48.2073L37.1571 49.6635L36.5605 49.4381Z" fill="#EBE9DC"/>
<path fill-rule="evenodd" clip-rule="evenodd" d="M37.4056 44.1138C37.3264 43.7807 37.4582 43.5167 37.6962 43.2878L37.8332 43.3785L37.4056 44.1138Z" fill="#CECDB7"/>
<path fill-rule="evenodd" clip-rule="evenodd" d="M36.1286 37.9201L36.102 37.9154L36.075 37.9196L36.1382 37.6994L36.1286 37.9201Z" fill="#4FAA41"/>
</g>
<defs>
<filter id="filter0_d_1_53" x="-2" y="0" width="76" height="74" filterUnits="userSpaceOnUse" color-interpolation-filters="sRGB">
<feFlood flood-opacity="0" result="BackgroundImageFix"/>
<feColorMatrix in="SourceAlpha" type="matrix" values="0 0 0 0 0 0 0 0 0 0 0 0 0 0 0 0 0 0 127 0" result="hardAlpha"/>
<feOffset dy="4"/>
<feGaussianBlur stdDeviation="2"/>
<feComposite in2="hardAlpha" operator="out"/>
<feColorMatrix type="matrix" values="0 0 0 0 0 0 0 0 0 0 0 0 0 0 0 0 0 0 0.25 0"/>
<feBlend mode="normal" in2="BackgroundImageFix" result="effect1_dropShadow_1_53"/>
<feBlend mode="normal" in="SourceGraphic" in2="effect1_dropShadow_1_53" result="shape"/>
</filter>
</defs>
</svg>
