<svg width="68" height="65" viewBox="0 0 68 65" fill="none" xmlns="http://www.w3.org/2000/svg">
<rect x="4.42725" y="21.4535" width="59.2906" height="40.2133" fill="white"/>
<path d="M0 32.5V65H68V0H0V32.5ZM54.7971 29.9C56.4258 30.2613 57.9061 31.0755 59.0512 32.24C59.6816 32.8674 60.2297 33.5658 60.6832 34.32C60.6832 34.4032 57.7456 36.3012 55.9558 37.362C55.8906 37.4036 55.6294 37.1332 55.3411 36.7224C55.0144 36.1835 54.5502 35.7325 53.9918 35.4115C53.4334 35.0905 52.799 34.91 52.1478 34.8868C50.0861 34.7516 48.7587 35.7864 48.7696 37.4868C48.7526 37.9102 48.854 38.3302 49.0634 38.7036C49.5149 39.6032 50.3581 40.1388 53.0019 41.2308C57.8707 43.2328 59.9542 44.5536 61.249 46.4308C62.696 48.5108 63.017 51.87 62.0378 54.3556C60.9498 57.0596 58.2842 58.8952 54.5142 59.5036C52.7924 59.6921 51.0527 59.6746 49.3354 59.4516C46.7145 59.0452 44.2968 57.8523 42.432 56.0456C41.8064 55.3852 40.5878 53.664 40.664 53.5392C40.8626 53.3983 41.0717 53.2714 41.2896 53.1596L43.792 51.7868L45.745 50.7052L46.153 51.2824C46.8415 52.2239 47.7178 53.0262 48.7315 53.6432C50.9075 54.7352 53.8778 54.5844 55.3466 53.3208C55.8397 52.8578 56.1474 52.2441 56.216 51.5866C56.2845 50.9291 56.1097 50.2694 55.7219 49.7224C55.1779 48.9996 54.0899 48.3912 51.049 47.1224C47.5402 45.6768 46.0278 44.7824 44.6461 43.3576C43.7835 42.4174 43.1466 41.3081 42.7802 40.1076C42.5068 38.7361 42.4664 37.3314 42.6605 35.9476C43.384 32.708 45.9245 30.446 49.6346 29.7752C51.3527 29.572 53.0932 29.6176 54.7971 29.9104V29.9ZM38.8362 32.6248V35.2872H30.007V59.3268H23.7456V35.282H14.8947V32.682C14.871 31.7869 14.8964 30.8913 14.9709 29.9988C15.0035 29.9572 20.4109 29.9364 26.9389 29.9468H38.8035L38.8362 32.6248Z" fill="#007ACC"/>
</svg>
