<svg width="50" height="50" viewBox="0 0 50 50" fill="none" xmlns="http://www.w3.org/2000/svg">
<g filter="url(#filter0_d_131_15)">
<path d="M18.048 33.3754C18.048 33.5434 17.8532 33.6777 17.6077 33.6777C17.3282 33.7029 17.1335 33.5686 17.1335 33.3754C17.1335 33.2074 17.3282 33.073 17.5738 33.073C17.8278 33.0479 18.048 33.1822 18.048 33.3754ZM15.4145 32.9975C15.3552 33.1654 15.5246 33.3586 15.7786 33.409C15.9988 33.493 16.2528 33.409 16.3036 33.241C16.3544 33.073 16.1935 32.8799 15.9395 32.8043C15.7194 32.7455 15.4738 32.8295 15.4145 32.9975ZM19.1573 32.8547C18.9117 32.9135 18.7423 33.073 18.7677 33.2662C18.7931 33.4342 19.0133 33.5434 19.2673 33.4846C19.5129 33.4258 19.6823 33.2662 19.6569 33.0982C19.6315 32.9387 19.4028 32.8295 19.1573 32.8547ZM24.729 0.671875C12.9843 0.671875 4 9.51543 4 21.1641C4 30.4779 9.91048 38.448 18.3528 41.2531C19.4367 41.4463 19.8177 40.7828 19.8177 40.2369C19.8177 39.7162 19.7923 36.8439 19.7923 35.0803C19.7923 35.0803 13.8649 36.34 12.6202 32.5775C12.6202 32.5775 11.6548 30.1336 10.2661 29.5037C10.2661 29.5037 8.32702 28.1852 10.4016 28.2104C10.4016 28.2104 12.5101 28.3783 13.6702 30.3771C15.5246 33.6189 18.6323 32.6867 19.8431 32.1324C20.0379 30.7887 20.5883 29.8564 21.198 29.3021C16.4645 28.7814 11.6887 28.1012 11.6887 20.0219C11.6887 17.7123 12.3323 16.5533 13.6871 15.0752C13.4669 14.5293 12.7472 12.2785 13.9073 9.37266C15.677 8.82676 19.75 11.6402 19.75 11.6402C21.4435 11.1699 23.2641 10.9264 25.0677 10.9264C26.8714 10.9264 28.6919 11.1699 30.3855 11.6402C30.3855 11.6402 34.4585 8.81836 36.2282 9.37266C37.3883 12.2869 36.6685 14.5293 36.4484 15.0752C37.8032 16.5617 38.6331 17.7207 38.6331 20.0219C38.6331 28.1264 33.6456 28.773 28.9121 29.3021C29.6911 29.9656 30.3516 31.2254 30.3516 33.199C30.3516 36.0293 30.3262 39.5314 30.3262 40.2201C30.3262 40.766 30.7157 41.4295 31.7911 41.2363C40.2589 38.448 46 30.4779 46 21.1641C46 9.51543 36.4738 0.671875 24.729 0.671875ZM12.2306 29.6381C12.1206 29.7221 12.146 29.9152 12.2899 30.0748C12.4254 30.2092 12.6202 30.268 12.7302 30.1588C12.8403 30.0748 12.8149 29.8816 12.671 29.7221C12.5355 29.5877 12.3407 29.5289 12.2306 29.6381ZM11.3161 28.9578C11.2569 29.067 11.3415 29.2014 11.5109 29.2854C11.6464 29.3693 11.8157 29.3441 11.875 29.2266C11.9343 29.1174 11.8496 28.983 11.6802 28.899C11.5109 28.8486 11.3754 28.8738 11.3161 28.9578ZM14.0597 31.9477C13.9242 32.0568 13.975 32.3088 14.1698 32.4684C14.3645 32.6615 14.6101 32.6867 14.7202 32.5523C14.8302 32.4432 14.7794 32.1912 14.6101 32.0316C14.4238 31.8385 14.1698 31.8133 14.0597 31.9477ZM13.0944 30.7131C12.9589 30.7971 12.9589 31.0154 13.0944 31.2086C13.2298 31.4018 13.4585 31.4857 13.5685 31.4018C13.704 31.2926 13.704 31.0742 13.5685 30.8811C13.45 30.6879 13.2298 30.6039 13.0944 30.7131Z" fill="white"/>
</g>
<defs>
<filter id="filter0_d_131_15" x="0" y="0" width="50" height="51" filterUnits="userSpaceOnUse" color-interpolation-filters="sRGB">
<feFlood flood-opacity="0" result="BackgroundImageFix"/>
<feColorMatrix in="SourceAlpha" type="matrix" values="0 0 0 0 0 0 0 0 0 0 0 0 0 0 0 0 0 0 127 0" result="hardAlpha"/>
<feOffset dy="4"/>
<feGaussianBlur stdDeviation="2"/>
<feComposite in2="hardAlpha" operator="out"/>
<feColorMatrix type="matrix" values="0 0 0 0 0 0 0 0 0 0 0 0 0 0 0 0 0 0 0.25 0"/>
<feBlend mode="normal" in2="BackgroundImageFix" result="effect1_dropShadow_131_15"/>
<feBlend mode="normal" in="SourceGraphic" in2="effect1_dropShadow_131_15" result="shape"/>
</filter>
</defs>
</svg>
