<svg width="76" height="74" viewBox="0 0 76 74" fill="none" xmlns="http://www.w3.org/2000/svg">
<g clip-path="url(#clip0_1_93)" filter="url(#filter0_d_1_93)">
<path d="M4 33C4 14.7744 19.2221 0 38 0C56.7779 0 72 14.7744 72 33C72 51.2256 56.7779 66 38 66C19.2221 66 4 51.2256 4 33Z" fill="#333333"/>
<path d="M31.1999 52.8C33.0034 52.8 34.733 52.1046 36.0082 50.8669C37.2835 49.6291 37.9999 47.9504 37.9999 46.2V39.6H31.1999C29.3964 39.6 27.6668 40.2953 26.3916 41.5331C25.1163 42.7708 24.3999 44.4495 24.3999 46.2C24.3999 47.9504 25.1163 49.6291 26.3916 50.8669C27.6668 52.1046 29.3964 52.8 31.1999 52.8Z" fill="#0ACF83"/>
<path d="M24.3999 33C24.3999 31.2496 25.1163 29.5709 26.3916 28.3331C27.6668 27.0954 29.3964 26.4 31.1999 26.4H37.9999V39.6H31.1999C30.3069 39.6 29.4227 39.4293 28.5977 39.0976C27.7726 38.7659 27.023 38.2798 26.3916 37.6669C25.7601 37.0541 25.2593 36.3265 24.9175 35.5257C24.5758 34.725 24.3999 33.8667 24.3999 33Z" fill="#A259FF"/>
<path d="M24.3999 19.8C24.3999 18.0496 25.1163 16.3708 26.3916 15.1331C27.6668 13.8954 29.3964 13.2 31.1999 13.2H37.9999V26.4H31.1999C29.3964 26.4 27.6668 25.7047 26.3916 24.4669C25.1163 23.2292 24.3999 21.5504 24.3999 19.8Z" fill="#F24E1E"/>
<path d="M38 13.2H44.8C46.6035 13.2 48.3331 13.8954 49.6083 15.1331C50.8836 16.3708 51.6 18.0496 51.6 19.8C51.6 21.5504 50.8836 23.2292 49.6083 24.4669C48.3331 25.7047 46.6035 26.4 44.8 26.4H38V13.2Z" fill="#FF7262"/>
<path d="M51.6 33C51.6 34.7505 50.8836 36.4292 49.6083 37.6669C48.3331 38.9047 46.6035 39.6 44.8 39.6C42.9965 39.6 41.2669 38.9047 39.9917 37.6669C38.7164 36.4292 38 34.7505 38 33C38 31.2496 38.7164 29.5709 39.9917 28.3331C41.2669 27.0954 42.9965 26.4 44.8 26.4C46.6035 26.4 48.3331 27.0954 49.6083 28.3331C50.8836 29.5709 51.6 31.2496 51.6 33Z" fill="#1ABCFE"/>
</g>
<defs>
<filter id="filter0_d_1_93" x="0" y="0" width="76" height="74" filterUnits="userSpaceOnUse" color-interpolation-filters="sRGB">
<feFlood flood-opacity="0" result="BackgroundImageFix"/>
<feColorMatrix in="SourceAlpha" type="matrix" values="0 0 0 0 0 0 0 0 0 0 0 0 0 0 0 0 0 0 127 0" result="hardAlpha"/>
<feOffset dy="4"/>
<feGaussianBlur stdDeviation="2"/>
<feComposite in2="hardAlpha" operator="out"/>
<feColorMatrix type="matrix" values="0 0 0 0 0 0 0 0 0 0 0 0 0 0 0 0 0 0 0.25 0"/>
<feBlend mode="normal" in2="BackgroundImageFix" result="effect1_dropShadow_1_93"/>
<feBlend mode="normal" in="SourceGraphic" in2="effect1_dropShadow_1_93" result="shape"/>
</filter>
<clipPath id="clip0_1_93">
<rect width="68" height="66" fill="white" transform="translate(4)"/>
</clipPath>
</defs>
</svg>
