<svg width="75" height="77" viewBox="0 0 75 77" fill="none" xmlns="http://www.w3.org/2000/svg">
<g clip-path="url(#clip0_1_32)" filter="url(#filter0_d_1_32)">
<path d="M4.73682 0.758972H70.2628V68.2415H4.73682V0.758972Z" fill="#F0DB4F"/>
<path d="M64.9002 52.1468C64.4202 49.0682 62.471 46.4823 56.6969 44.0711C54.6911 43.1218 52.455 42.442 51.7886 40.8766C51.552 39.9656 51.5206 39.4524 51.6703 38.9009C52.1001 37.1112 54.1745 36.5533 55.8186 37.0665C56.8775 37.432 57.8799 38.2724 58.4845 39.613C61.3121 37.7274 61.3063 37.7398 63.2807 36.4439C62.5578 35.2897 62.1721 34.7571 61.6989 34.2634C59.9982 32.3071 57.681 31.2996 53.975 31.3767L52.0446 31.6338C50.1948 32.1152 48.4318 33.1151 47.398 34.4558C44.2962 38.0805 45.1808 44.4241 48.9553 47.0348C52.6738 49.9091 58.1364 50.563 58.8341 53.2507C59.513 56.5412 56.486 57.6064 53.4773 57.228C51.26 56.753 50.0268 55.5924 48.6936 53.482C46.2397 54.9445 46.2397 54.9445 43.7167 56.4388C44.315 57.7859 44.9436 58.3956 45.9466 59.5626C50.6931 64.5209 62.5709 64.2773 64.7013 56.7724C64.7877 56.5148 65.3614 54.7962 64.9002 52.1468ZM40.3589 31.774H34.2299L34.2048 48.0925C34.2048 51.5629 34.3791 54.7445 33.8311 55.7197C32.9344 57.6376 30.6109 57.3999 29.552 57.028C28.4742 56.4824 27.9262 55.7067 27.2912 54.6103C27.1169 54.2955 26.9861 54.0518 26.9421 54.0329L21.959 57.1757C22.7876 58.9271 24.0082 60.4472 25.5718 61.4348C27.9073 62.8784 31.0464 63.321 34.3294 62.5447C36.4661 61.9038 38.3096 60.5761 39.2748 58.5551C40.6703 55.9056 40.3709 52.6988 40.3583 49.1517C40.3897 43.3649 40.3589 37.5791 40.3589 31.774Z" fill="#323330"/>
</g>
<defs>
<filter id="filter0_d_1_32" x="0" y="0" width="75" height="77" filterUnits="userSpaceOnUse" color-interpolation-filters="sRGB">
<feFlood flood-opacity="0" result="BackgroundImageFix"/>
<feColorMatrix in="SourceAlpha" type="matrix" values="0 0 0 0 0 0 0 0 0 0 0 0 0 0 0 0 0 0 127 0" result="hardAlpha"/>
<feOffset dy="4"/>
<feGaussianBlur stdDeviation="2"/>
<feComposite in2="hardAlpha" operator="out"/>
<feColorMatrix type="matrix" values="0 0 0 0 0 0 0 0 0 0 0 0 0 0 0 0 0 0 0.25 0"/>
<feBlend mode="normal" in2="BackgroundImageFix" result="effect1_dropShadow_1_32"/>
<feBlend mode="normal" in="SourceGraphic" in2="effect1_dropShadow_1_32" result="shape"/>
</filter>
<clipPath id="clip0_1_32">
<rect width="67" height="69" fill="white" transform="translate(4)"/>
</clipPath>
</defs>
</svg>
