<svg width="67" height="76" viewBox="0 0 67 76" fill="none" xmlns="http://www.w3.org/2000/svg">
<g filter="url(#filter0_d_1_35)">
<path d="M59.0286 16.3519L35.9465 2.54922C34.4909 1.69534 32.5955 1.69534 31.1283 2.54922L7.79974 16.3519C6.29748 17.2419 5.23438 18.9146 5.23438 20.7038V48.2725C5.23438 50.0616 6.32522 51.7349 7.82748 52.6297L13.991 56.235C16.9369 57.7293 17.978 57.7293 19.3185 57.7293C23.6803 57.7293 26.1719 55.0129 26.1719 50.2751V23.0578C26.1719 22.6735 25.9777 22.1016 25.6113 22.1016H22.668C22.2953 22.1016 21.4609 22.6735 21.4609 23.0573V50.2746C21.4609 52.3748 19.6163 54.4647 16.169 52.6896L9.80032 48.9091C9.57838 48.7851 9.42188 48.5356 9.42188 48.2725V20.7038C9.42188 20.4439 9.71238 20.183 9.93589 20.0499L33.1891 6.27091C33.4063 6.14423 33.7256 6.14423 33.9423 6.27091L56.9118 20.0466C57.1316 20.183 57.0542 20.4359 57.0542 20.7038V48.2725C57.0542 48.5356 57.15 48.7916 56.9327 48.9183L33.8565 62.7054C33.6586 62.8277 33.4131 62.8277 33.1964 62.7054L27.2779 59.0672C27.0994 58.9605 26.8874 58.9222 26.7163 59.0209C25.0695 59.982 24.7659 60.1098 23.2213 60.6612C22.8412 60.7976 22.2806 61.0343 23.4359 61.7011L31.1817 66.42C31.9234 66.8621 32.7661 67.0917 33.6141 67.0917C34.4736 67.0917 35.3153 66.8621 36.057 66.42L59.028 52.6297C60.5303 51.7284 61.2422 50.0616 61.2422 48.2725V20.7038C61.2422 18.9146 60.5303 17.2462 59.0286 16.3519ZM40.781 43.9039C34.6432 43.9039 33.2911 42.1601 32.8405 39.0168C32.7881 38.6783 32.5091 38.2734 32.1747 38.2734H29.1748C28.8037 38.2734 28.5054 38.737 28.5054 39.1176C28.5054 43.1422 30.63 48.0186 40.7815 48.0186C48.1301 48.0186 52.3432 45.078 52.3432 39.8739C52.3432 34.714 48.9582 33.3599 41.8316 32.3885C34.628 31.4079 33.8962 30.9125 33.8962 29.1746C33.8962 27.7418 34.516 25.8308 39.8498 25.8308C44.6157 25.8308 46.3724 26.8841 47.0952 30.1923C47.157 30.5034 47.4329 30.7266 47.7443 30.7266H50.7562C50.9415 30.7266 51.1184 30.6495 51.2482 30.5131C51.3738 30.3665 51.4403 30.1826 51.4235 29.9853C50.9572 24.2885 47.2821 21.6336 39.8493 21.6336C33.2378 21.6336 29.2937 24.509 29.2937 29.3288C29.2937 34.5566 33.2179 36.0013 39.5645 36.6476C47.157 37.4142 47.7474 38.557 47.7474 40.0949C47.7474 42.766 45.6652 43.9039 40.781 43.9039Z" fill="#83CD29"/>
</g>
<defs>
<filter id="filter0_d_1_35" x="-4" y="0" width="75" height="77" filterUnits="userSpaceOnUse" color-interpolation-filters="sRGB">
<feFlood flood-opacity="0" result="BackgroundImageFix"/>
<feColorMatrix in="SourceAlpha" type="matrix" values="0 0 0 0 0 0 0 0 0 0 0 0 0 0 0 0 0 0 127 0" result="hardAlpha"/>
<feOffset dy="4"/>
<feGaussianBlur stdDeviation="2"/>
<feComposite in2="hardAlpha" operator="out"/>
<feColorMatrix type="matrix" values="0 0 0 0 0 0 0 0 0 0 0 0 0 0 0 0 0 0 0.25 0"/>
<feBlend mode="normal" in2="BackgroundImageFix" result="effect1_dropShadow_1_35"/>
<feBlend mode="normal" in="SourceGraphic" in2="effect1_dropShadow_1_35" result="shape"/>
</filter>
</defs>
</svg>
