<svg width="74" height="70" viewBox="0 0 74 70" fill="none" xmlns="http://www.w3.org/2000/svg">
<g filter="url(#filter0_d_1_82)">
<path d="M36.9997 38.8781C40.2461 38.8781 42.8778 36.2464 42.8778 33C42.8778 29.7536 40.2461 27.1219 36.9997 27.1219C33.7533 27.1219 31.1216 29.7536 31.1216 33C31.1216 36.2464 33.7533 38.8781 36.9997 38.8781Z" fill="#61DAFB"/>
<path d="M59.3264 23.3063C58.192 22.8938 57.0061 22.4813 55.7686 22.1203C56.0779 20.8828 56.3357 19.6453 56.542 18.4594C57.6248 11.6531 56.4389 6.85782 53.1389 5.00157C52.1592 4.43439 51.0764 4.17657 49.8389 4.17657C46.2295 4.17657 41.6404 6.85782 36.9998 11.3438C32.3592 6.85782 27.7701 4.17657 24.1607 4.17657C22.9232 4.17657 21.8404 4.43439 20.8607 5.00157C17.5607 6.90939 16.3748 11.7047 17.4576 18.4594C17.6639 19.6453 17.9217 20.8828 18.2311 22.1203C16.9936 22.4813 15.8076 22.8422 14.6732 23.3063C8.22793 25.7813 4.72168 29.1844 4.72168 33C4.72168 36.8156 8.27949 40.2188 14.6732 42.6938C15.8076 43.1063 16.9936 43.5188 18.2311 43.8797C17.9217 45.1172 17.6639 46.3547 17.4576 47.5406C16.3748 54.3469 17.5607 59.1422 20.8607 60.9985C21.8404 61.5656 22.9232 61.8235 24.1607 61.8235C27.8217 61.8235 32.4107 59.1422 36.9998 54.6563C41.6404 59.1422 46.2295 61.8235 49.8389 61.8235C51.0764 61.8235 52.1592 61.5656 53.1389 60.9985C56.4389 59.0906 57.6248 54.2953 56.542 47.5406C56.3357 46.3547 56.0779 45.1172 55.7686 43.8797C57.0061 43.5188 58.192 43.1578 59.3264 42.6938C65.7717 40.2188 69.2779 36.8156 69.2779 33C69.2779 29.1844 65.7717 25.7813 59.3264 23.3063ZM51.6951 7.5797C53.8092 8.8172 54.5311 12.6328 53.6545 18.0469C53.4998 19.1297 53.242 20.2641 52.9326 21.45C50.2514 20.8313 47.4154 20.4188 44.4248 20.1609C42.6717 17.6859 40.867 15.4688 39.0623 13.4578C42.8779 9.69376 46.7451 7.11564 49.8904 7.11564C50.5607 7.11564 51.1795 7.27032 51.6951 7.5797ZM45.9201 38.1563C44.992 39.8063 43.9092 41.4563 42.7748 43.1063C40.867 43.2609 38.9592 43.3125 36.9998 43.3125C34.9889 43.3125 33.0811 43.2609 31.2248 43.1063C30.0904 41.4563 29.0592 39.8063 28.1311 38.1563C27.1514 36.4547 26.2232 34.7016 25.3982 33C26.2232 31.2985 27.1514 29.5453 28.1311 27.8438C29.0592 26.1938 30.142 24.5438 31.2764 22.8938C33.1842 22.7391 35.092 22.6875 37.0514 22.6875C39.0623 22.6875 40.9701 22.7391 42.8264 22.8938C43.9607 24.5438 44.992 26.1938 45.9201 27.8438C46.8998 29.5453 47.8279 31.2985 48.6529 33C47.7764 34.7016 46.8998 36.4031 45.9201 38.1563ZM50.1998 36.4547C50.9732 38.2594 51.592 40.0125 52.1592 41.7656C50.4061 42.1781 48.5498 42.4875 46.5904 42.7453C47.2092 41.7656 47.8795 40.7344 48.4467 39.6516C49.0654 38.5688 49.6326 37.486 50.1998 36.4547ZM36.9998 50.4281C35.7623 49.0875 34.5764 47.6438 33.442 46.1484C34.6279 46.2 35.8139 46.2516 36.9998 46.2516C38.1857 46.2516 39.3717 46.2 40.5576 46.1484C39.4232 47.6438 38.2373 49.0875 36.9998 50.4281ZM27.4092 42.6938C25.4498 42.436 23.5936 42.1266 21.8404 41.7141C22.4076 40.0125 23.0264 38.2078 23.7998 36.4031C24.367 37.4344 24.9342 38.5172 25.5529 39.5485C26.1717 40.6828 26.7904 41.6625 27.4092 42.6938ZM23.7998 29.5453C23.0264 27.7406 22.4076 25.9875 21.8404 24.2344C23.5936 23.8219 25.4498 23.5125 27.4092 23.2547C26.7904 24.2344 26.1201 25.2656 25.5529 26.3484C24.9342 27.4313 24.367 28.5141 23.7998 29.5453ZM36.9998 15.5719C38.2373 16.9125 39.4232 18.3563 40.5576 19.8516C39.3717 19.8 38.1857 19.7484 36.9998 19.7484C35.8139 19.7484 34.6279 19.8 33.442 19.8516C34.5764 18.3563 35.7623 16.9125 36.9998 15.5719ZM48.4467 26.4L46.5904 23.3063C48.5498 23.5641 50.4061 23.8734 52.1592 24.2859C51.592 25.9875 50.9732 27.7922 50.1998 29.5969C49.6326 28.5141 49.0654 27.4313 48.4467 26.4ZM20.3451 18.0469C19.4686 12.6328 20.1904 8.8172 22.3045 7.5797C22.8201 7.27032 23.4389 7.11564 24.1092 7.11564C27.2029 7.11564 31.0701 9.6422 34.9373 13.4578C33.1326 15.4172 31.3279 17.6859 29.5748 20.1609C26.5842 20.4188 23.7482 20.8828 21.067 21.45C20.7576 20.2641 20.5514 19.1297 20.3451 18.0469ZM7.60918 33C7.60918 30.5766 10.5482 27.9984 15.7045 26.0906C16.7357 25.6781 17.8701 25.3172 19.0045 25.0078C19.8295 27.586 20.8607 30.3188 22.0982 33.0516C20.8607 35.7844 19.7779 38.4656 19.0045 41.0438C11.8889 38.9813 7.60918 35.8875 7.60918 33ZM22.3045 58.4203C20.1904 57.1828 19.4686 53.3672 20.3451 47.9531C20.4998 46.8703 20.7576 45.736 21.067 44.55C23.7482 45.1688 26.5842 45.5813 29.5748 45.8391C31.3279 48.3141 33.1326 50.5313 34.9373 52.5422C31.1217 56.3063 27.2545 58.8844 24.1092 58.8844C23.4389 58.8844 22.8201 58.7297 22.3045 58.4203ZM53.6545 47.9531C54.5311 53.3672 53.8092 57.1828 51.6951 58.4203C51.1795 58.7297 50.5607 58.8844 49.8904 58.8844C46.7967 58.8844 42.9295 56.3578 39.0623 52.5422C40.867 50.5828 42.6717 48.3141 44.4248 45.8391C47.4154 45.5813 50.2514 45.1172 52.9326 44.55C53.242 45.736 53.4482 46.8703 53.6545 47.9531ZM58.2951 39.9094C57.2639 40.3219 56.1295 40.6828 54.9951 40.9922C54.1701 38.4141 53.1389 35.6813 51.9014 32.9485C53.1389 30.2156 54.2217 27.5344 54.9951 24.9563C62.1107 27.0188 66.3904 30.1125 66.3904 33C66.3904 35.4235 63.3998 38.0016 58.2951 39.9094Z" fill="#61DAFB"/>
</g>
<defs>
<filter id="filter0_d_1_82" x="0" y="0" width="74" height="74" filterUnits="userSpaceOnUse" color-interpolation-filters="sRGB">
<feFlood flood-opacity="0" result="BackgroundImageFix"/>
<feColorMatrix in="SourceAlpha" type="matrix" values="0 0 0 0 0 0 0 0 0 0 0 0 0 0 0 0 0 0 127 0" result="hardAlpha"/>
<feOffset dy="4"/>
<feGaussianBlur stdDeviation="2"/>
<feComposite in2="hardAlpha" operator="out"/>
<feColorMatrix type="matrix" values="0 0 0 0 0 0 0 0 0 0 0 0 0 0 0 0 0 0 0.25 0"/>
<feBlend mode="normal" in2="BackgroundImageFix" result="effect1_dropShadow_1_82"/>
<feBlend mode="normal" in="SourceGraphic" in2="effect1_dropShadow_1_82" result="shape"/>
</filter>
</defs>
</svg>
