<svg width="85" height="89" viewBox="0 0 85 89" fill="none" xmlns="http://www.w3.org/2000/svg">
<g filter="url(#filter0_f_163_14)">
<ellipse cx="43" cy="44.5" rx="38" ry="40.5" fill="black"/>
</g>
<g opacity="0.6" filter="url(#filter1_d_163_14)">
<circle cx="42.5" cy="42.5" r="38.5" fill="#222831"/>
</g>
<g filter="url(#filter2_d_163_14)">
<path d="M71.0614 29.496L45.9499 16.8172C44.883 16.2801 43.7026 16 42.5052 16C41.3078 16 40.1274 16.2801 39.0606 16.8172L13.949 29.496C13.3626 29.7899 12.8701 30.2385 12.5261 30.7921C12.1821 31.3457 12 31.9826 12 32.6322C12 33.2819 12.1821 33.9188 12.5261 34.4724C12.8701 35.026 13.3626 35.4746 13.949 35.7685L23.3151 40.5089V54.7711C22.7166 54.9347 22.1678 55.2408 21.7168 55.6626C21.2658 56.0844 20.9264 56.609 20.7282 57.1904C20.5299 57.7719 20.479 58.3925 20.5799 58.998C20.6807 59.6034 20.9302 60.1752 21.3066 60.6632C20.8041 61.3445 20.531 62.1647 20.5261 63.0077V67.7892C20.526 68.3702 20.7574 68.9279 21.1703 69.3417C21.5832 69.7554 22.1443 69.9919 22.7323 70H25.9064C26.5007 70 27.0709 69.7674 27.4922 69.3531C27.9134 68.9388 28.1515 68.3765 28.1542 67.7892V62.8534C28.1446 62.0524 27.8787 61.2749 27.3945 60.6324C27.7664 60.1441 28.0115 59.5733 28.1087 58.9698C28.2058 58.3664 28.1519 57.7486 27.9517 57.1704C27.7516 56.5923 27.4112 56.0713 26.9603 55.6531C26.5094 55.2349 25.9618 54.9321 25.3652 54.7711V51.9331C28.6121 54.874 35.2204 57.3933 42.5052 57.3933C52.8391 57.3933 61.6849 52.365 61.6849 48.2416V40.5089L71.051 35.7685C71.6374 35.4746 72.1298 35.026 72.4739 34.4724C72.8179 33.9188 73 33.2819 73 32.6322C73 31.9826 72.8179 31.3457 72.4739 30.7921C72.1298 30.2385 71.6374 29.7899 71.051 29.496H71.0614ZM26.1145 67.7892C26.1119 67.831 26.0931 67.8703 26.0622 67.8989C26.0313 67.9276 25.9904 67.9435 25.948 67.9434H22.7323C22.6909 67.9434 22.6512 67.9272 22.6219 67.8983C22.5926 67.8693 22.5762 67.8301 22.5762 67.7892V63.0077C22.5799 62.6142 22.7032 62.2309 22.93 61.9074C23.8377 62.271 24.853 62.271 25.7607 61.9074C25.9638 62.1859 26.073 62.5205 26.0729 62.8637L26.1145 67.7892ZM26.1145 58.3907C26.1145 58.7324 26.012 59.0664 25.8199 59.3505C25.6277 59.6345 25.3547 59.856 25.0352 59.9867C24.7158 60.1175 24.3642 60.1517 24.0251 60.085C23.6859 60.0184 23.3744 59.8538 23.1299 59.6122C22.8854 59.3706 22.7189 59.0628 22.6514 58.7277C22.584 58.3926 22.6186 58.0453 22.7509 57.7296C22.8832 57.4139 23.1073 57.1441 23.3948 56.9543C23.6823 56.7645 24.0204 56.6632 24.3662 56.6632C24.5984 56.6631 24.8283 56.7088 25.0425 56.7976C25.2567 56.8863 25.4508 57.0163 25.6136 57.18C25.7764 57.3437 25.9045 57.5378 25.9905 57.751C26.0765 57.9641 26.1186 58.1921 26.1145 58.4215V58.3907ZM59.6036 48.2518C59.6036 50.6169 52.2147 55.347 42.5052 55.347C32.7957 55.347 25.4068 50.6169 25.4068 48.2518V41.5577L39.0606 48.4575C40.1276 48.9937 41.3081 49.2721 42.5052 49.2698C43.7017 49.2671 44.8811 48.989 45.9499 48.4575L59.6036 41.5577V48.2518ZM70.1144 33.9381L45.0028 46.6271C44.228 47.0123 43.3726 47.213 42.5052 47.213C41.6378 47.213 40.7824 47.0123 40.0076 46.6271L26.6452 39.9125L39.7162 33.3315C40.2385 33.8875 40.9183 34.2752 41.6669 34.4437C42.4156 34.6123 43.1982 34.554 43.9128 34.2765C44.6274 33.9989 45.2408 33.515 45.6728 32.8879C46.1049 32.2607 46.3356 31.5194 46.3349 30.7608C46.3349 29.7572 45.9314 28.7947 45.2132 28.085C44.495 27.3754 43.5209 26.9767 42.5052 26.9767C41.4895 26.9767 40.5154 27.3754 39.7972 28.085C39.079 28.7947 38.6755 29.7572 38.6755 30.7608C38.6786 31.0091 38.703 31.2568 38.7483 31.5011L24.3662 38.7197L14.896 33.9381C14.6506 33.8169 14.4442 33.6304 14.2999 33.3998C14.1557 33.1691 14.0793 32.9034 14.0793 32.6322C14.0793 32.3611 14.1557 32.0953 14.2999 31.8647C14.4442 31.634 14.6506 31.4476 14.896 31.3263L40.0076 18.6476C40.7805 18.256 41.6366 18.0518 42.5052 18.0518C43.3738 18.0518 44.2299 18.256 45.0028 18.6476L70.1144 31.3263C70.3598 31.4476 70.5662 31.634 70.7105 31.8647C70.8547 32.0953 70.9311 32.3611 70.9311 32.6322C70.9311 32.9034 70.8547 33.1691 70.7105 33.3998C70.5662 33.6304 70.3598 33.8169 70.1144 33.9381ZM40.7569 30.7196C40.7548 30.3775 40.8556 30.0425 41.0464 29.7571C41.2373 29.4716 41.5096 29.2486 41.8289 29.1163C42.1482 28.984 42.5 28.9483 42.8399 29.0138C43.1797 29.0793 43.4922 29.243 43.7377 29.4842C43.9833 29.7253 44.1508 30.0331 44.2191 30.3685C44.2875 30.7039 44.2534 31.0518 44.1214 31.368C43.9894 31.6843 43.7653 31.9547 43.4776 32.145C43.1899 32.3353 42.8514 32.4368 42.5052 32.4369C42.0433 32.4369 41.6002 32.2563 41.2726 31.9345C40.945 31.6128 40.7596 31.176 40.7569 30.7196Z" fill="white"/>
</g>
<defs>
<filter id="filter0_f_163_14" x="1" y="0" width="84" height="89" filterUnits="userSpaceOnUse" color-interpolation-filters="sRGB">
<feFlood flood-opacity="0" result="BackgroundImageFix"/>
<feBlend mode="normal" in="SourceGraphic" in2="BackgroundImageFix" result="shape"/>
<feGaussianBlur stdDeviation="2" result="effect1_foregroundBlur_163_14"/>
</filter>
<filter id="filter1_d_163_14" x="0" y="4" width="85" height="85" filterUnits="userSpaceOnUse" color-interpolation-filters="sRGB">
<feFlood flood-opacity="0" result="BackgroundImageFix"/>
<feColorMatrix in="SourceAlpha" type="matrix" values="0 0 0 0 0 0 0 0 0 0 0 0 0 0 0 0 0 0 127 0" result="hardAlpha"/>
<feOffset dy="4"/>
<feGaussianBlur stdDeviation="2"/>
<feComposite in2="hardAlpha" operator="out"/>
<feColorMatrix type="matrix" values="0 0 0 0 0 0 0 0 0 0 0 0 0 0 0 0 0 0 0.25 0"/>
<feBlend mode="normal" in2="BackgroundImageFix" result="effect1_dropShadow_163_14"/>
<feBlend mode="normal" in="SourceGraphic" in2="effect1_dropShadow_163_14" result="shape"/>
</filter>
<filter id="filter2_d_163_14" x="8" y="16" width="69" height="62" filterUnits="userSpaceOnUse" color-interpolation-filters="sRGB">
<feFlood flood-opacity="0" result="BackgroundImageFix"/>
<feColorMatrix in="SourceAlpha" type="matrix" values="0 0 0 0 0 0 0 0 0 0 0 0 0 0 0 0 0 0 127 0" result="hardAlpha"/>
<feOffset dy="4"/>
<feGaussianBlur stdDeviation="2"/>
<feComposite in2="hardAlpha" operator="out"/>
<feColorMatrix type="matrix" values="0 0 0 0 0 0 0 0 0 0 0 0 0 0 0 0 0 0 0.25 0"/>
<feBlend mode="normal" in2="BackgroundImageFix" result="effect1_dropShadow_163_14"/>
<feBlend mode="normal" in="SourceGraphic" in2="effect1_dropShadow_163_14" result="shape"/>
</filter>
</defs>
</svg>
