<svg width="85" height="89" viewBox="0 0 85 89" fill="none" xmlns="http://www.w3.org/2000/svg">
<g filter="url(#filter0_f_377_6)">
<ellipse cx="43" cy="44.5" rx="38" ry="40.5" fill="black"/>
</g>
<g opacity="0.6" filter="url(#filter1_d_377_6)">
<circle cx="42.5" cy="42.5" r="38.5" fill="#222831"/>
</g>
<g clip-path="url(#clip0_377_6)">
<path d="M29.2656 52.625V50.5937C29.2657 48.9776 29.9077 47.4277 31.0504 46.2849C32.1932 45.1422 33.7431 44.5002 35.3593 44.5002L53.6408 44.4998C55.2569 44.4998 56.8068 43.8578 57.9496 42.7151C59.0923 41.5723 59.7343 40.0224 59.7344 38.4063V36.375" stroke="white" stroke-width="3" stroke-linecap="round" stroke-linejoin="round"/>
<path d="M29.2656 36.375V52.625" stroke="white" stroke-width="3" stroke-linecap="round" stroke-linejoin="round"/>
<path d="M29.2656 66.8438C33.192 66.8438 36.375 63.6608 36.375 59.7344C36.375 55.808 33.192 52.625 29.2656 52.625C25.3392 52.625 22.1562 55.808 22.1562 59.7344C22.1562 63.6608 25.3392 66.8438 29.2656 66.8438Z" stroke="white" stroke-width="3" stroke-linecap="round" stroke-linejoin="round"/>
<path d="M59.7344 36.3745C63.6608 36.3745 66.8438 33.1915 66.8438 29.2651C66.8438 25.3387 63.6608 22.1558 59.7344 22.1558C55.808 22.1558 52.625 25.3387 52.625 29.2651C52.625 33.1915 55.808 36.3745 59.7344 36.3745Z" stroke="white" stroke-width="3" stroke-linecap="round" stroke-linejoin="round"/>
<path d="M29.2656 36.3745C33.192 36.3745 36.375 33.1915 36.375 29.2651C36.375 25.3387 33.192 22.1558 29.2656 22.1558C25.3392 22.1558 22.1562 25.3387 22.1562 29.2651C22.1562 33.1915 25.3392 36.3745 29.2656 36.3745Z" stroke="white" stroke-width="3" stroke-linecap="round" stroke-linejoin="round"/>
</g>
<defs>
<filter id="filter0_f_377_6" x="1" y="0" width="84" height="89" filterUnits="userSpaceOnUse" color-interpolation-filters="sRGB">
<feFlood flood-opacity="0" result="BackgroundImageFix"/>
<feBlend mode="normal" in="SourceGraphic" in2="BackgroundImageFix" result="shape"/>
<feGaussianBlur stdDeviation="2" result="effect1_foregroundBlur_377_6"/>
</filter>
<filter id="filter1_d_377_6" x="0" y="4" width="85" height="85" filterUnits="userSpaceOnUse" color-interpolation-filters="sRGB">
<feFlood flood-opacity="0" result="BackgroundImageFix"/>
<feColorMatrix in="SourceAlpha" type="matrix" values="0 0 0 0 0 0 0 0 0 0 0 0 0 0 0 0 0 0 127 0" result="hardAlpha"/>
<feOffset dy="4"/>
<feGaussianBlur stdDeviation="2"/>
<feComposite in2="hardAlpha" operator="out"/>
<feColorMatrix type="matrix" values="0 0 0 0 0 0 0 0 0 0 0 0 0 0 0 0 0 0 0.25 0"/>
<feBlend mode="normal" in2="BackgroundImageFix" result="effect1_dropShadow_377_6"/>
<feBlend mode="normal" in="SourceGraphic" in2="effect1_dropShadow_377_6" result="shape"/>
</filter>
<clipPath id="clip0_377_6">
<rect width="65" height="65" fill="white" transform="translate(12 12)"/>
</clipPath>
</defs>
</svg>
