<svg width="27" height="30" viewBox="0 0 27 30" fill="none" xmlns="http://www.w3.org/2000/svg">
<g filter="url(#filter0_d_131_21)">
<path fill-rule="evenodd" clip-rule="evenodd" d="M21.3636 9.18182C21.3636 15.5455 13.1818 21 13.1818 21C13.1818 21 5 15.5455 5 9.18182C5 7.01187 5.86201 4.93079 7.3964 3.3964C8.93079 1.86201 11.0119 1 13.1818 1C15.3518 1 17.4328 1.86201 18.9672 3.3964C20.5016 4.93079 21.3636 7.01187 21.3636 9.18182Z" stroke="#D65A31" stroke-width="2" stroke-linecap="round" stroke-linejoin="round"/>
<path d="M13.1819 11.9091C14.6881 11.9091 15.9091 10.6881 15.9091 9.18186C15.9091 7.67563 14.6881 6.45459 13.1819 6.45459C11.6756 6.45459 10.4546 7.67563 10.4546 9.18186C10.4546 10.6881 11.6756 11.9091 13.1819 11.9091Z" stroke="#D65A31" stroke-width="2" stroke-linecap="round" stroke-linejoin="round"/>
</g>
<defs>
<filter id="filter0_d_131_21" x="0" y="0" width="26.3638" height="30" filterUnits="userSpaceOnUse" color-interpolation-filters="sRGB">
<feFlood flood-opacity="0" result="BackgroundImageFix"/>
<feColorMatrix in="SourceAlpha" type="matrix" values="0 0 0 0 0 0 0 0 0 0 0 0 0 0 0 0 0 0 127 0" result="hardAlpha"/>
<feOffset dy="4"/>
<feGaussianBlur stdDeviation="2"/>
<feComposite in2="hardAlpha" operator="out"/>
<feColorMatrix type="matrix" values="0 0 0 0 0 0 0 0 0 0 0 0 0 0 0 0 0 0 0.25 0"/>
<feBlend mode="normal" in2="BackgroundImageFix" result="effect1_dropShadow_131_21"/>
<feBlend mode="normal" in="SourceGraphic" in2="effect1_dropShadow_131_21" result="shape"/>
</filter>
</defs>
</svg>
