<svg width="49" height="49" viewBox="0 0 49 49" fill="none" xmlns="http://www.w3.org/2000/svg">
<g filter="url(#filter0_d_202_29)">
<path d="M24.5267 34.2734C25.0072 34.2734 25.4076 34.1133 25.7279 33.793L35.3906 24.1302L37.8197 21.7012C38.14 21.3809 38.3001 20.9805 38.3001 20.5C38.3001 20.0195 38.14 19.6191 37.8197 19.2988L35.3906 16.8698L25.7279 7.20703C25.4076 6.88672 25.0072 6.72656 24.5267 6.72656C24.0462 6.72656 23.6458 6.88672 23.3255 7.20703L20.8965 9.63607C20.5762 9.95638 20.416 10.3568 20.416 10.8372C20.416 11.3177 20.5762 11.7181 20.8965 12.0384L25.9414 17.0833L12.5417 17.0833C12.079 17.0833 11.6786 17.2524 11.3405 17.5905C11.0024 17.9286 10.8333 18.329 10.8333 18.7917V22.2083C10.8333 22.671 11.0024 23.0714 11.3405 23.4095C11.6786 23.7476 12.079 23.9167 12.5417 23.9167L25.9414 23.9167L20.8965 28.9616C20.5584 29.2997 20.3893 29.7001 20.3893 30.1628C20.3893 30.6254 20.5584 31.0258 20.8965 31.3639L23.3255 33.793C23.6458 34.1133 24.0462 34.2734 24.5267 34.2734ZM24.5 41C20.7808 41 17.3508 40.0835 14.21 38.2507C11.0691 36.4178 8.58225 33.9309 6.74935 30.79C4.91645 27.6492 4 24.2192 4 20.5C4 16.7808 4.91645 13.3508 6.74935 10.21C8.58225 7.06912 11.0691 4.58225 14.21 2.74935C17.3508 0.91645 20.7808 0 24.5 0C28.2192 0 31.6492 0.91645 34.79 2.74935C37.9309 4.58225 40.4178 7.06912 42.2507 10.21C44.0836 13.3508 45 16.7808 45 20.5C45 24.2192 44.0836 27.6492 42.2507 30.79C40.4178 33.9309 37.9309 36.4178 34.79 38.2507C31.6492 40.0835 28.2192 41 24.5 41Z" fill="white"/>
</g>
<defs>
<filter id="filter0_d_202_29" x="0" y="0" width="49" height="49" filterUnits="userSpaceOnUse" color-interpolation-filters="sRGB">
<feFlood flood-opacity="0" result="BackgroundImageFix"/>
<feColorMatrix in="SourceAlpha" type="matrix" values="0 0 0 0 0 0 0 0 0 0 0 0 0 0 0 0 0 0 127 0" result="hardAlpha"/>
<feOffset dy="4"/>
<feGaussianBlur stdDeviation="2"/>
<feComposite in2="hardAlpha" operator="out"/>
<feColorMatrix type="matrix" values="0 0 0 0 0 0 0 0 0 0 0 0 0 0 0 0 0 0 0.25 0"/>
<feBlend mode="normal" in2="BackgroundImageFix" result="effect1_dropShadow_202_29"/>
<feBlend mode="normal" in="SourceGraphic" in2="effect1_dropShadow_202_29" result="shape"/>
</filter>
</defs>
</svg>
